<?xml version="1.0" standalone="no"?>
<!DOCTYPE svg PUBLIC "-//W3C//DTD SVG 20010904//EN"
 "http://www.w3.org/TR/2001/REC-SVG-20010904/DTD/svg10.dtd">
<svg version="1.0" xmlns="http://www.w3.org/2000/svg"
 width="512.000000pt" height="512.000000pt" viewBox="0 0 512.000000 512.000000"
 preserveAspectRatio="xMidYMid meet">
<metadata>
Created by potrace 1.16, written by Peter Selinger 2001-2019
</metadata>
<g transform="translate(0.000000,512.000000) scale(0.100000,-0.100000)"
fill="#000000" stroke="none">
<path d="M3140 4689 c-690 -235 -1270 -433 -1288 -440 -66 -22 -62 77 -62
-1480 0 -1340 -1 -1411 -17 -1404 -101 38 -173 49 -328 49 -186 0 -268 -16
-412 -84 -215 -100 -365 -268 -418 -466 -21 -76 -21 -231 -1 -309 64 -244 281
-443 572 -527 69 -20 102 -23 254 -23 151 0 186 3 258 23 247 67 441 219 533
415 62 135 59 53 59 1517 l0 1335 863 293 c474 161 865 292 870 292 8 0 10
-1590 2 -1590 -3 0 -37 9 -77 20 -341 93 -716 0 -935 -232 -122 -130 -183
-278 -183 -443 0 -185 70 -337 218 -477 114 -107 245 -174 417 -214 108 -25
321 -25 424 -1 318 76 542 272 618 538 17 60 18 121 18 896 0 827 0 833 -21
853 -11 11 -36 23 -55 26 -29 5 -41 1 -65 -19 l-29 -25 -5 -839 -5 -838 -23
-57 c-92 -229 -346 -378 -642 -379 -136 -1 -219 17 -338 72 -187 86 -305 228
-335 404 -33 192 99 408 314 514 128 62 191 76 354 76 157 0 217 -12 346 -70
42 -19 86 -35 99 -35 12 0 35 13 51 29 l29 29 0 952 c0 815 -2 955 -15 979
-16 31 -33 41 -73 41 -26 0 -1908 -637 -1951 -660 -11 -6 -25 -19 -31 -30 -7
-12 -10 -470 -10 -1377 0 -1485 3 -1414 -58 -1527 -35 -67 -152 -184 -224
-225 -213 -120 -500 -133 -725 -31 -159 72 -274 193 -323 340 -18 54 -21 80
-17 152 4 74 10 99 41 164 53 112 152 207 278 267 132 64 208 81 353 80 135
-1 226 -20 340 -72 101 -46 153 -40 174 20 8 23 11 447 11 1473 l0 1441 1183
403 c650 221 1185 402 1190 402 4 0 7 -319 7 -709 0 -446 4 -719 10 -736 6
-15 24 -32 45 -41 52 -21 100 0 115 53 8 27 10 266 8 815 l-3 776 -24 26 c-19
20 -34 26 -65 25 -26 -1 -513 -162 -1296 -430z"/>
</g>
</svg>
